<svg width="22" height="21" viewBox="0 0 22 21" fill="none" xmlns="http://www.w3.org/2000/svg">
<path d="M15.093 21C14.7451 21 14.3972 20.8982 14.1005 20.7048L9.74138 17.8139H5.88372C2.36372 17.8139 0 15.4624 0 11.9607V5.85313C0 2.35143 2.36372 0 5.88372 0H16.1163C19.6363 0 22 2.35143 22 5.85313V11.9607C22 15.1978 19.974 17.4576 16.8837 17.7732V19.2186C16.8837 19.8803 16.5256 20.4808 15.9423 20.7862C15.6763 20.9287 15.3795 21 15.093 21ZM5.88372 1.51671C3.24372 1.51671 1.53488 3.21666 1.53488 5.84294V11.9505C1.53488 14.5768 3.24372 16.2768 5.88372 16.2768H9.97674C10.1302 16.2768 10.2735 16.3175 10.4065 16.4091L14.96 19.4222C15.0726 19.4935 15.1749 19.4629 15.2261 19.4324C15.2772 19.4019 15.3591 19.3408 15.3591 19.2084V17.0402C15.3591 16.6229 15.707 16.2768 16.1265 16.2768C18.7665 16.2768 20.4754 14.5768 20.4754 11.9505V5.84294C20.4754 3.21666 18.7665 1.51671 16.1265 1.51671H5.88372Z" fill="#292D32"/>
<path d="M9.9139 15.269V9.99574C9.9139 9.82381 9.76194 9.69154 9.59165 9.71525V9.71525C9.45655 9.73407 9.32724 9.6539 9.284 9.52454L8.32762 6.66329C8.24358 6.41187 8.33427 6.13508 8.55081 5.98215V5.98215C8.81667 5.79439 9.18369 5.8525 9.37855 6.1132L10.5513 7.68225C10.7351 7.92816 11.0892 7.98268 11.3421 7.80401L11.8002 7.48051C12.0532 7.30184 12.1093 6.95765 11.9255 6.71174L10.7732 5.17009C10.5702 4.89846 10.6312 4.51285 10.9082 4.31722V4.31722C11.1166 4.17007 11.395 4.17007 11.6034 4.31722L13.7184 5.81094C14.0788 6.06551 14.2298 6.52625 14.0899 6.94478L13.2438 9.47618C13.1896 9.63836 13.0377 9.74771 12.8667 9.74771V9.74771C12.6472 9.74771 12.4692 9.9257 12.4692 10.1453V15.269" stroke="#292D32" stroke-linejoin="round"/>
</svg>
